<?xml version="1.0" standalone="no"?>
<!DOCTYPE svg PUBLIC "-//W3C//DTD SVG 1.1//EN" "http://www.w3.org/Graphics/SVG/1.1/DTD/svg11.dtd" >
<svg xmlns="http://www.w3.org/2000/svg">
<metadata></metadata>
<defs>
<font id="liquid_crystalbold" horiz-adv-x="1064" >
<font-face units-per-em="2048" ascent="1638" descent="-410" />
<missing-glyph horiz-adv-x="614" />
<glyph horiz-adv-x="2048" />
<glyph horiz-adv-x="2048" />
<glyph unicode="&#xd;" horiz-adv-x="2048" />
<glyph unicode=" "  horiz-adv-x="614" />
<glyph unicode="&#x09;" horiz-adv-x="614" />
<glyph unicode="&#xa0;" horiz-adv-x="614" />
<glyph unicode="!" horiz-adv-x="333" d="M-53 104l104 107l105 -107l-105 -104zM-53 940v594l104 104l105 -104v-594l-105 -106zM-51 346v352l100 107l109 -107v-352l-107 -104z" />
<glyph unicode="&#x22;" horiz-adv-x="659" d="M-98 1239v197l96 96l94 -96v-197l-94 -96zM188 1239v197l97 96l98 -96l-2 -197l-96 -96z" />
<glyph unicode="$" horiz-adv-x="1069" d="M-53 225v60l104 106l105 -106v-60l-105 -104zM-51 940l2 473l102 105l107 -105l-2 -473l-105 -106zM66 819l106 105h125l104 -105l-102 -106h-127zM68 104l106 107h125l119 -119l121 119h125l106 -107l-104 -104h-492zM68 1534l106 104h490l106 -104l-104 -107h-127 l-121 119l-117 -119h-127zM313 225v473l105 107l106 -107v-473l-106 -104zM313 940v473l105 105l106 -105v-473l-106 -106zM432 819l107 105h125l106 -105l-104 -106h-127zM680 225v473l104 107l107 -107v-473l-107 -104zM680 1354v59l104 105l107 -105v-59l-107 -107z" />
<glyph unicode="'" horiz-adv-x="333" d="M-125 1231v203l107 104l102 -104v-203l-104 -107z" />
<glyph unicode="(" horiz-adv-x="534" d="M-53 225v584h98l113 -111l-2 -473l-107 -104zM-51 829v584l100 105l109 -105l-2 -473l-109 -111h-98zM66 104l106 107h80l104 -107l-104 -104h-80zM66 1534l106 104h78l106 -104l-104 -107h-80z" />
<glyph unicode=")" horiz-adv-x="534" d="M-53 104l104 107h80l105 -107l-105 -104h-80zM-53 1534l104 104h80l105 -104l-105 -107h-80zM145 225v473l111 111h100v-584l-106 -104zM145 940v473l105 105l106 -105v-584h-100z" />
<glyph unicode="*" horiz-adv-x="505" d="M-53 629v114l47 66h133v-135l-68 -45h-112zM-53 877v135h112l66 -47l2 -136h-133zM145 676l2 135h136l45 -68v-114h-115zM145 965l68 47h115v-135l-45 -48h-136z" />
<glyph unicode="+" horiz-adv-x="868" d="M-53 819l104 105h146l104 -105l-102 -106h-148zM211 543l2 155l104 107l107 -107l-2 -155l-103 -107zM211 1096l106 106l105 -106l2 -156l-107 -106l-104 106zM332 819l106 105h148l104 -105l-104 -106h-146z" />
<glyph unicode="," horiz-adv-x="333" d="M45 213l107 106l104 -106v-104l-209 -211z" />
<glyph unicode="." horiz-adv-x="333" d="M37 109l2 104l104 106l107 -106l-2 -104l-105 -107z" />
<glyph unicode="/" horiz-adv-x="1026" d="M-53 0v182l332 627h108v-234l-305 -575h-135zM410 829v234l305 575h135v-182l-332 -627h-108z" />
<glyph unicode="0" horiz-adv-x="1075" d="M-47 225v473l102 107l107 -107v-473l-107 -104zM-47 940v473l102 105l107 -105v-473l-107 -106zM70 104l106 107h492l104 -107l-104 -104h-490zM70 1534l106 104h492l104 -104l-104 -107h-490zM682 225v473l104 107l107 -107v-473l-107 -104zM682 940v473l104 105 l107 -105v-473l-107 -106z" />
<glyph unicode="1" horiz-adv-x="1075" d="M205 1313l190 190v-284l-100 -101l-88 88zM426 92l2 606l102 107l109 -107l-2 -594l-105 -104zM426 940v594l106 104l105 -104v-594l-105 -106z" />
<glyph unicode="2" horiz-adv-x="1075" d="M-49 702l104 107l105 -107l2 -477l-209 -211zM-47 1354v59l102 105l107 -105v-59l-107 -107zM-33 0l209 211h494l211 -211h-914zM70 819l106 105h494l104 -105l-104 -106h-492zM70 1534l106 104h492l104 -104l-104 -107h-490zM682 940v473l104 105l107 -105v-473 l-107 -106z" />
<glyph unicode="3" horiz-adv-x="1075" d="M-18 104l104 107h551l104 -107l-104 -104h-549zM-18 1534l104 104h551l104 -104l-104 -107h-551zM98 819l105 105h434l104 -105l-104 -106h-432zM651 225l2 473l103 107l108 -107l-2 -473l-106 -104zM651 940l2 473l103 105l108 -105l-2 -473l-106 -106z" />
<glyph unicode="4" horiz-adv-x="1075" d="M-47 940v494l102 104l105 -104l2 -494l-107 -106zM68 819l106 105h494l104 -105l-104 -106h-494zM682 104v594l104 107l107 -107v-594l-105 -104zM682 940v594l104 104l107 -104v-594l-107 -106z" />
<glyph unicode="5" horiz-adv-x="1075" d="M-49 225v60l104 106l105 -106v-60l-107 -104zM-49 1624l211 -215v-469l-111 -111h-98zM-35 1638h914l-209 -211h-494zM70 104l104 107h492l104 -107l-104 -104h-490zM70 819l104 105h494l104 -105l-102 -106h-494zM684 225v473l104 107l107 -107v-473l-107 -104z" />
<glyph unicode="6" horiz-adv-x="1075" d="M-47 225v584h98l111 -111v-473l-107 -104zM-47 829v584l102 105l107 -105v-473l-111 -111h-98zM68 819l106 105h494l104 -105l-104 -106h-494zM70 104l106 107h492l104 -107l-104 -104h-490zM70 1534l106 104h492l104 -104l-104 -107h-490zM682 225v473l104 107l107 -107 v-473l-107 -104z" />
<glyph unicode="7" horiz-adv-x="1075" d="M-41 1534l104 104h717l105 -106l-105 -105h-717zM82 0v182l332 627h108l2 -213l-307 -596h-135zM543 1022l211 383h20v-365l-121 -211h-108z" />
<glyph unicode="8" horiz-adv-x="1075" d="M-47 225v473l102 107l107 -107v-473l-107 -104zM-47 940v473l102 105l107 -105v-473l-107 -106zM68 819l106 105h494l104 -105l-104 -106h-494zM70 104l106 107h492l104 -107l-104 -104h-490zM70 1534l106 104h492l104 -104l-104 -107h-490zM682 225v473l104 107 l107 -107v-473l-107 -104zM682 940v473l104 105l107 -105v-473l-107 -106z" />
<glyph unicode="9" horiz-adv-x="1075" d="M-47 940v473l102 105l107 -105v-473l-107 -106zM70 104l106 107h492l104 -107l-104 -104h-490zM70 819l106 107h494l104 -107l-106 -104h-492zM70 1534l106 104h492l104 -104l-104 -107h-490zM682 225v473l111 111h100v-584l-107 -104zM682 940v473l104 105l107 -105 v-584h-100z" />
<glyph unicode=":" horiz-adv-x="333" d="M4 104v107l107 104l104 -104v-107l-104 -104zM4 594v104l105 107l106 -107v-104l-106 -107z" />
<glyph unicode=";" horiz-adv-x="333" d="M12 -102v315l105 106l106 -106l-2 -104zM12 594v104l105 107l106 -107v-104l-106 -107z" />
<glyph unicode="&#x3c;" horiz-adv-x="393" d="M-53 616v193h127l141 -293v-344h-20zM-53 1022l248 444h20v-344l-141 -293h-125z" />
<glyph unicode="=" horiz-adv-x="827" d="M-2 104l104 107h492l104 -107l-102 -104h-494zM-2 809l104 106h494l104 -106l-106 -104h-494z" />
<glyph unicode="&#x3e;" horiz-adv-x="393" d="M-53 516l139 293h129v-193l-246 -444h-20zM-53 1122v344h20l248 -444l2 -193h-129z" />
<glyph unicode="?" horiz-adv-x="944" d="M-53 1534l104 104h490l96 -94l-115 -117h-471zM188 104l107 107l104 -107l-104 -104zM190 346v352l105 107l106 -107v-352l-106 -104zM309 819l127 127h86l123 -127l-102 -106h-127zM537 961v452l116 115l115 -115v-473l-106 -106z" />
<glyph unicode="A" horiz-adv-x="1073" d="M-53 104v705h100l111 -111l-2 -594l-105 -104zM-53 1409l106 109l107 -105l-2 -473l-109 -111h-100zM68 819l106 105h494l104 -105l-104 -106h-494zM70 1534l106 104h490l106 -106l-104 -105h-490zM682 940v473l104 105l109 -107l2 -582h-104zM684 104l2 594l109 111h100 v-705l-104 -104z" />
<glyph unicode="B" horiz-adv-x="1069" d="M-53 809h100l111 -111l-2 -473l-207 -211zM-53 1624l211 -211l-2 -473l-109 -111h-98zM-39 0l211 211h492l106 -107l-104 -104h-705zM-37 1638h701l106 -106l-104 -105h-494zM66 819l106 105h492l106 -105l-104 -106h-494zM680 225v473l104 107l107 -107v-473l-107 -104z M680 940v473l104 105l107 -105v-473l-107 -106z" />
<glyph unicode="C" d="M-53 225v584h100l111 -111l-2 -473l-105 -104zM-51 829v584l100 105l109 -105l-2 -473l-109 -111h-98zM66 104l106 107h490l104 -107l-102 -104h-492zM66 1534l106 104h490l104 -104l-102 -107h-492zM678 225v60l104 106l107 -106v-60l-107 -104zM678 1354v59l104 105 l107 -105v-59l-107 -107z" />
<glyph unicode="D" horiz-adv-x="1069" d="M-53 809h100l111 -111l-2 -473l-207 -211zM-53 1624l211 -211l-2 -473l-109 -111h-98zM-39 0l211 211h492l106 -107l-104 -104h-705zM-37 1638h701l106 -106l-104 -105h-494zM680 225v473l108 111h103v-584l-107 -104zM680 940v473l104 105l107 -105v-584h-100z" />
<glyph unicode="E" horiz-adv-x="944" d="M-53 225v584h100l111 -111l-2 -473l-105 -104zM-51 829v584l100 105l109 -105l-2 -473l-109 -111h-98zM63 819l105 105h375l104 -105l-104 -106h-373zM66 104l106 107h490l104 -107l-102 -104h-492zM66 1534l106 104h490l104 -106l-102 -105h-492z" />
<glyph unicode="F" horiz-adv-x="944" d="M-53 104v705h100l111 -111l-2 -594l-105 -104zM-51 829v584l100 105l109 -105l-2 -473l-109 -111h-98zM63 819l105 105h375l104 -105l-104 -106h-373zM66 1534l106 104h490l104 -106l-102 -105h-492z" />
<glyph unicode="G" d="M-53 225v584h100l111 -111l-2 -473l-105 -104zM-51 829v584l100 105l109 -105l-2 -473l-109 -111h-98zM66 104l106 107h490l104 -107l-102 -104h-492zM66 1534l106 104h490l104 -106l-102 -105h-492zM430 819l107 105h335l-208 -211h-127zM678 225v473l211 211v-684 l-107 -104z" />
<glyph unicode="H" d="M-53 104v705h100l111 -111l-2 -594l-105 -104zM-53 1534l104 104l105 -104v-594l-109 -111h-98zM63 819l105 105h494l104 -105l-102 -106h-494zM676 104l2 594l108 111h103l-2 -705l-103 -104zM676 1534l106 104l105 -104l2 -705h-101l-110 111z" />
<glyph unicode="I" horiz-adv-x="333" d="M-53 104l2 594l100 107l109 -107l-2 -594l-105 -104zM-53 940v594l104 104l105 -104v-594l-105 -106z" />
<glyph unicode="J" horiz-adv-x="1069" d="M-53 225v60l104 106l105 -106v-60l-105 -104zM66 104l106 107h490l104 -107l-102 -104h-492zM432 1534l107 104h125l106 -106l-104 -105h-127zM680 225v473l108 111h103v-584l-107 -104zM680 940v473l104 105l107 -105v-584h-100z" />
<glyph unicode="K" horiz-adv-x="1046" d="M-53 104v705h100l111 -111l-2 -594l-105 -104zM-53 1534l104 104l105 -104v-594l-109 -111h-98zM63 819l105 105h127l104 -105l-104 -106h-125zM332 721l88 88h94l354 -606v-203h-114zM334 918l420 720h114v-202l-352 -607h-96z" />
<glyph unicode="L" horiz-adv-x="944" d="M-53 225v584h100l111 -111l-2 -473l-105 -104zM-53 1534l104 104l105 -104v-594l-109 -111h-98zM66 104l106 107h490l104 -107l-102 -104h-492z" />
<glyph unicode="M" horiz-adv-x="1798" d="M-53 104v705h100l111 -111l-2 -594l-105 -104zM-51 829v584l100 105l109 -105l-2 -473l-109 -111h-98zM66 1534l106 104h490l104 -104l-102 -107h-492zM676 104l2 594l104 107l107 -107l-2 -594l-103 -104zM678 940v473l104 105l107 -105v-473l-107 -106zM797 1534 l106 104h490l106 -104l-104 -107h-490zM1409 104v594l111 111h100v-705l-104 -104zM1409 940v473l104 105l107 -105v-584h-100z" />
<glyph unicode="N" d="M-53 104v705h100l111 -111l-2 -594l-105 -104zM-53 1534l104 104l105 -104v-594l-109 -111h-98zM174 1534h70l411 -412v-182h-125l-354 354zM676 104l2 594l108 111h103l-2 -705l-103 -104zM676 1534l106 104l105 -104l2 -705h-101l-110 111z" />
<glyph unicode="O" d="M-53 225v584h100l111 -111l-2 -473l-105 -104zM-51 829v584l100 105l109 -105l-2 -473l-109 -111h-98zM66 104l106 107h490l104 -107l-102 -104h-492zM66 1534l106 104h490l104 -104l-102 -107h-492zM678 225v473l108 111h103v-584l-107 -104zM678 940v473l104 105 l107 -105v-584h-101z" />
<glyph unicode="P" horiz-adv-x="1071" d="M-53 104v705h100l111 -111l-2 -594l-105 -104zM-51 1624l211 -211l-2 -473l-109 -111h-98zM-35 1638h701l106 -106l-104 -105h-494zM68 819l106 105h494l104 -105l-104 -106h-494zM682 940v473l104 105l107 -105v-473l-107 -106z" />
<glyph unicode="Q" d="M-53 225v584h100l111 -111l-2 -473l-105 -104zM-51 829v584l100 105l109 -105l-2 -473l-109 -111h-98zM66 104l106 107h490l104 -107l-102 -104h-492zM66 1534l106 104h490l104 -104l-102 -107h-492zM498 469v264h41l114 -180l-2 -320zM678 225v473l108 111h103v-584 l-107 -104zM678 940v473l104 105l107 -105v-584h-101z" />
<glyph unicode="R" horiz-adv-x="1071" d="M-53 104v705h100l111 -111l-2 -594l-105 -104zM-51 1624l211 -211l-2 -473l-109 -111h-98zM-35 1638h701l106 -106l-104 -105h-494zM68 819l106 105h494l104 -105l-104 -106h-494zM178 598l2 94h191l522 -604l2 -88h-197zM682 940v473l104 105l107 -105v-473l-107 -106z " />
<glyph unicode="S" horiz-adv-x="1069" d="M-53 225v60l104 106l105 -106v-60l-105 -104zM-51 940l2 473l102 105l107 -105l-2 -473l-105 -106zM66 104l106 107h490l104 -107l-102 -104h-492zM66 819l106 105h492l106 -105l-104 -106h-494zM68 1534l106 104h490l106 -104l-104 -107h-492zM680 225v473l104 107 l107 -107v-473l-107 -104zM680 1354v59l104 105l107 -105v-59l-107 -107z" />
<glyph unicode="T" horiz-adv-x="1024" d="M-53 1534l104 104h690l105 -104l-105 -107h-225l-121 119l-119 -119h-225zM289 104l2 594l102 107l109 -107l-2 -594l-105 -104zM289 940l2 473l102 105l109 -105l-2 -473l-105 -106z" />
<glyph unicode="U" d="M-53 225v584h100l111 -111l-2 -473l-105 -104zM-53 1534l104 104l105 -104v-594l-109 -111h-98zM66 104l106 107h490l104 -107l-102 -104h-492zM676 1534l106 104l105 -104l2 -705h-101l-110 111zM678 225v473l108 111h103v-584l-107 -104z" />
<glyph unicode="V" horiz-adv-x="1069" d="M-53 709v100h194l267 -535v-274h-89zM-51 1534l104 104l105 -104l2 -635l-37 -70h-172zM430 0v274l264 535h197v-100l-373 -709h-88zM680 899v635l104 104l107 -104v-705h-172z" />
<glyph unicode="W" horiz-adv-x="1798" d="M-53 225v584h100l111 -111l-2 -473l-105 -104zM-53 1534l104 104l105 -104v-594l-109 -111h-98zM66 104l106 107h490l104 -107l-102 -104h-492zM676 1534l106 104l105 -104l2 -594l-107 -106l-104 106zM678 225v473l104 107l107 -107v-473l-107 -104zM797 104l106 107 h492l104 -107l-104 -104h-490zM1409 225v473l111 111h100v-584l-107 -104zM1409 940v594l104 104l107 -104v-705h-100z" />
<glyph unicode="X" horiz-adv-x="1026" d="M-53 0l2 203l309 606h129v-213l-305 -596h-135zM-53 1436v202h133l307 -596v-213h-129zM408 809h129l313 -606v-203h-135l-305 596zM408 1042l307 596h135v-202l-313 -607h-127z" />
<glyph unicode="Y" d="M-53 940v594l104 104l105 -104v-594l-105 -106zM-33 104l105 107h590l104 -107l-102 -104h-592zM63 819l105 105h494l104 -105l-102 -106h-494zM676 1534l106 104l105 -104l2 -594l-107 -106l-104 106zM678 225v473l104 107l107 -107v-473l-107 -104z" />
<glyph unicode="Z" horiz-adv-x="909" d="M-53 104l104 107h535l104 -107l-104 -104h-535zM-10 1534l104 104h533l104 -106l-104 -105h-531zM37 233v306l182 270h109v-213l-232 -363h-59zM350 829v213l230 363h59v-305l-180 -271h-109z" />
<glyph unicode="[" horiz-adv-x="624" d="M-53 809h100l111 -111l-2 -473l-207 -211zM-53 1624l211 -211l-2 -473l-109 -111h-98zM-39 0l211 211h125l149 -152l3 -59h-488zM-37 1638h486l-3 -59l-147 -152h-127z" />
<glyph unicode="\" horiz-adv-x="1026" d="M-53 1638h133l307 -575v-234h-108l-330 627zM408 575v234h108l334 -627v-182h-135z" />
<glyph unicode="]" horiz-adv-x="624" d="M-53 0v59l149 152h125l213 -211h-487zM-53 1579v59h485l-209 -211h-127zM238 225v473l108 111h103v-795zM238 940v473l211 211v-795h-101z" />
<glyph unicode="_" horiz-adv-x="827" d="M45 104l107 107h491l107 -107l-105 -104h-493z" />
<glyph unicode="a" horiz-adv-x="1073" d="M-53 104v705h100l111 -111l-2 -594l-105 -104zM-53 1409l106 109l107 -105l-2 -473l-109 -111h-100zM68 819l106 105h494l104 -105l-104 -106h-494zM70 1534l106 104h490l106 -106l-104 -105h-490zM682 940v473l104 105l109 -107l2 -582h-104zM684 104l2 594l109 111h100 v-705l-104 -104z" />
<glyph unicode="b" horiz-adv-x="1069" d="M-53 809h100l111 -111l-2 -473l-207 -211zM-53 1624l211 -211l-2 -473l-109 -111h-98zM-39 0l211 211h492l106 -107l-104 -104h-705zM-37 1638h701l106 -106l-104 -105h-494zM66 819l106 105h492l106 -105l-104 -106h-494zM680 225v473l104 107l107 -107v-473l-107 -104z M680 940v473l104 105l107 -105v-473l-107 -106z" />
<glyph unicode="c" d="M-53 225v584h100l111 -111l-2 -473l-105 -104zM-51 829v584l100 105l109 -105l-2 -473l-109 -111h-98zM66 104l106 107h490l104 -107l-102 -104h-492zM66 1534l106 104h490l104 -104l-102 -107h-492zM678 225v60l104 106l107 -106v-60l-107 -104zM678 1354v59l104 105 l107 -105v-59l-107 -107z" />
<glyph unicode="d" horiz-adv-x="1069" d="M-53 809h100l111 -111l-2 -473l-207 -211zM-53 1624l211 -211l-2 -473l-109 -111h-98zM-39 0l211 211h492l106 -107l-104 -104h-705zM-37 1638h701l106 -106l-104 -105h-494zM680 225v473l108 111h103v-584l-107 -104zM680 940v473l104 105l107 -105v-584h-100z" />
<glyph unicode="e" horiz-adv-x="944" d="M-53 225v584h100l111 -111l-2 -473l-105 -104zM-51 829v584l100 105l109 -105l-2 -473l-109 -111h-98zM63 819l105 105h375l104 -105l-104 -106h-373zM66 104l106 107h490l104 -107l-102 -104h-492zM66 1534l106 104h490l104 -106l-102 -105h-492z" />
<glyph unicode="f" horiz-adv-x="944" d="M-53 104v705h100l111 -111l-2 -594l-105 -104zM-51 829v584l100 105l109 -105l-2 -473l-109 -111h-98zM63 819l105 105h375l104 -105l-104 -106h-373zM66 1534l106 104h490l104 -106l-102 -105h-492z" />
<glyph unicode="g" d="M-53 225v584h100l111 -111l-2 -473l-105 -104zM-51 829v584l100 105l109 -105l-2 -473l-109 -111h-98zM66 104l106 107h490l104 -107l-102 -104h-492zM66 1534l106 104h490l104 -106l-102 -105h-492zM430 819l107 105h335l-208 -211h-127zM678 225v473l211 211v-684 l-107 -104z" />
<glyph unicode="h" d="M-53 104v705h100l111 -111l-2 -594l-105 -104zM-53 1534l104 104l105 -104v-594l-109 -111h-98zM63 819l105 105h494l104 -105l-102 -106h-494zM676 104l2 594l108 111h103l-2 -705l-103 -104zM676 1534l106 104l105 -104l2 -705h-101l-110 111z" />
<glyph unicode="i" horiz-adv-x="333" d="M-53 104l2 594l100 107l109 -107l-2 -594l-105 -104zM-53 940v594l104 104l105 -104v-594l-105 -106z" />
<glyph unicode="j" horiz-adv-x="1069" d="M-53 225v60l104 106l105 -106v-60l-105 -104zM66 104l106 107h490l104 -107l-102 -104h-492zM680 225v473l108 111h103v-584l-107 -104zM680 940v594l104 104l107 -104v-705h-100z" />
<glyph unicode="k" horiz-adv-x="1046" d="M-53 104v705h100l111 -111l-2 -594l-105 -104zM-53 1534l104 104l105 -104v-594l-109 -111h-98zM63 819l105 105h127l104 -105l-104 -106h-125zM332 721l88 88h94l354 -606v-203h-114zM334 918l420 720h114v-202l-352 -607h-96z" />
<glyph unicode="l" horiz-adv-x="944" d="M-53 225v584h100l111 -111l-2 -473l-105 -104zM-53 1534l104 104l105 -104v-594l-109 -111h-98zM66 104l106 107h490l104 -107l-102 -104h-492z" />
<glyph unicode="m" d="M-53 104v705h100l111 -111l-2 -594l-105 -104zM-53 1534l104 104l105 -104v-594l-109 -111h-98zM176 1061v364h21l209 -381v-215h-89zM426 1044l209 381h20v-364l-141 -232h-86zM676 104l2 594l108 111h103l-2 -705l-103 -104zM676 1534l106 104l105 -104l2 -705h-101 l-110 111z" />
<glyph unicode="n" d="M-53 104v705h100l111 -111l-2 -594l-105 -104zM-53 1534l104 104l105 -104v-594l-109 -111h-98zM174 1534h70l411 -412v-182h-125l-354 354zM676 104l2 594l108 111h103l-2 -705l-103 -104zM676 1534l106 104l105 -104l2 -705h-101l-110 111z" />
<glyph unicode="o" d="M-53 225v584h100l111 -111l-2 -473l-105 -104zM-51 829v584l100 105l109 -105l-2 -473l-109 -111h-98zM66 104l106 107h490l104 -107l-102 -104h-492zM66 1534l106 104h490l104 -104l-102 -107h-492zM678 225v473l108 111h103v-584l-107 -104zM678 940v473l104 105 l107 -105v-584h-101z" />
<glyph unicode="p" horiz-adv-x="1071" d="M-53 104v705h100l111 -111l-2 -594l-105 -104zM-51 1624l211 -211l-2 -473l-109 -111h-98zM-35 1638h701l106 -106l-104 -105h-494zM68 819l106 105h494l104 -105l-104 -106h-494zM682 940v473l104 105l107 -105v-473l-107 -106z" />
<glyph unicode="q" d="M-53 225v584h100l111 -111l-2 -473l-105 -104zM-51 829v584l100 105l109 -105l-2 -473l-109 -111h-98zM66 104l106 107h490l104 -107l-102 -104h-492zM66 1534l106 104h490l104 -104l-102 -107h-492zM498 469v264h41l114 -180l-2 -320zM678 225v473l108 111h103v-584 l-107 -104zM678 940v473l104 105l107 -105v-584h-101z" />
<glyph unicode="r" horiz-adv-x="1071" d="M-53 104v705h100l111 -111l-2 -594l-105 -104zM-51 1624l211 -211l-2 -473l-109 -111h-98zM-35 1638h701l106 -106l-104 -105h-494zM68 819l106 105h494l104 -105l-104 -106h-494zM178 598l2 94h191l522 -604l2 -88h-197zM682 940v473l104 105l107 -105v-473l-107 -106z " />
<glyph unicode="s" horiz-adv-x="1069" d="M-53 225v60l104 106l105 -106v-60l-105 -104zM-51 940l2 473l102 105l107 -105l-2 -473l-105 -106zM66 104l106 107h490l104 -107l-102 -104h-492zM66 819l106 105h492l106 -105l-104 -106h-494zM68 1534l106 104h490l106 -104l-104 -107h-492zM680 225v473l104 107 l107 -107v-473l-107 -104zM680 1354v59l104 105l107 -105v-59l-107 -107z" />
<glyph unicode="t" horiz-adv-x="1024" d="M-53 1534l104 104h690l105 -104l-105 -107h-225l-121 119l-119 -119h-225zM289 104l2 594l102 107l109 -107l-2 -594l-105 -104zM289 940l2 473l102 105l109 -105l-2 -473l-105 -106z" />
<glyph unicode="u" d="M-53 225v584h100l111 -111l-2 -473l-105 -104zM-53 1534l104 104l105 -104v-594l-109 -111h-98zM66 104l106 107h490l104 -107l-102 -104h-492zM676 1534l106 104l105 -104l2 -705h-101l-110 111zM678 225v473l108 111h103v-584l-107 -104z" />
<glyph unicode="v" horiz-adv-x="1069" d="M-53 709v100h194l267 -535v-274h-89zM-51 1534l104 104l105 -104l2 -635l-37 -70h-172zM430 0v274l264 535h197v-100l-373 -709h-88zM680 899v635l104 104l107 -104v-705h-172z" />
<glyph unicode="w" d="M-53 104v705h100l111 -111l-2 -594l-105 -104zM-53 1534l104 104l105 -104v-594l-109 -111h-98zM176 213v365l141 231h89v-215l-209 -381h-21zM426 594v215h88l141 -231v-365h-20zM676 106l2 592l108 111h103l-2 -703l-103 -106zM676 1534l106 104l105 -104l2 -705h-101 l-110 111z" />
<glyph unicode="x" horiz-adv-x="1026" d="M-53 0l2 203l309 606h129v-213l-305 -596h-135zM-53 1436v202h133l307 -596v-213h-129zM408 809h129l313 -606v-203h-135l-305 596zM408 1042l307 596h135v-202l-313 -607h-127z" />
<glyph unicode="y" horiz-adv-x="1069" d="M-53 1638h174l285 -616l2 -193h-150l-309 668zM311 104l2 594l105 107l106 -107l-2 -594l-102 -104zM428 1022l287 616h176v-141l-313 -668h-148z" />
<glyph unicode="z" horiz-adv-x="909" d="M-53 104l104 107h535l104 -107l-104 -104h-535zM-10 1534l104 104h533l104 -106l-104 -105h-531zM37 233v306l182 270h109v-213l-232 -363h-59zM350 829v213l230 363h59v-305l-180 -271h-109z" />
<glyph unicode="|" horiz-adv-x="333" d="M-53 0l2 698l100 107l109 -107v-698l-107 -104zM-53 940v698l104 105l105 -105v-698l-105 -106z" />
<glyph unicode="&#x2000;" horiz-adv-x="871" />
<glyph unicode="&#x2001;" horiz-adv-x="1743" />
<glyph unicode="&#x2002;" horiz-adv-x="871" />
<glyph unicode="&#x2003;" horiz-adv-x="1743" />
<glyph unicode="&#x2004;" horiz-adv-x="581" />
<glyph unicode="&#x2005;" horiz-adv-x="435" />
<glyph unicode="&#x2006;" horiz-adv-x="290" />
<glyph unicode="&#x2007;" horiz-adv-x="290" />
<glyph unicode="&#x2008;" horiz-adv-x="217" />
<glyph unicode="&#x2009;" horiz-adv-x="348" />
<glyph unicode="&#x200a;" horiz-adv-x="96" />
<glyph unicode="&#x202f;" horiz-adv-x="348" />
<glyph unicode="&#x205f;" horiz-adv-x="435" />
<glyph unicode="&#xe000;" horiz-adv-x="1638" d="M0 0v1638h1638v-1638h-1638z" />
</font>
</defs>
</svg>
